<mxfile host="Electron" modified="2024-06-04T10:23:51.645Z" agent="Mozilla/5.0 (Windows NT 10.0; Win64; x64) AppleWebKit/537.36 (KHTML, like Gecko) draw.io/21.6.8 Chrome/114.0.5735.289 Electron/25.5.0 Safari/537.36" etag="Suxv1C69SZpgsCMonqlv" version="21.6.8" type="device">
  <diagram name="Page-1" id="IIRLR6lIK7QvAufewFqF">
    <mxGraphModel dx="777" dy="493" grid="1" gridSize="10" guides="1" tooltips="1" connect="1" arrows="1" fold="1" page="1" pageScale="1" pageWidth="827" pageHeight="1169" math="0" shadow="0">
      <root>
        <mxCell id="0" />
        <mxCell id="1" parent="0" />
        <mxCell id="EJkAIzDi1iacpB67AovN-4" value="" style="edgeStyle=orthogonalEdgeStyle;rounded=0;orthogonalLoop=1;jettySize=auto;html=1;" edge="1" parent="1" source="EJkAIzDi1iacpB67AovN-2" target="EJkAIzDi1iacpB67AovN-3">
          <mxGeometry relative="1" as="geometry" />
        </mxCell>
        <mxCell id="EJkAIzDi1iacpB67AovN-2" value="When the chatbot is clicked!" style="ellipse;whiteSpace=wrap;html=1;" vertex="1" parent="1">
          <mxGeometry x="340" y="30" width="120" height="80" as="geometry" />
        </mxCell>
        <mxCell id="EJkAIzDi1iacpB67AovN-3" value="/predict is called and sends the request payload as json to&amp;nbsp;" style="shape=process;whiteSpace=wrap;html=1;backgroundOutline=1;" vertex="1" parent="1">
          <mxGeometry x="340" y="150" width="120" height="60" as="geometry" />
        </mxCell>
      </root>
    </mxGraphModel>
  </diagram>
</mxfile>
